PathFileType	4	(X/Y/Z)	C:/Users/opensim2020/Desktop/walking_exp_matlab/subject01_walking08_straight_01.trc	
DataRate	CameraRate	NumFrames	NumMarkers	Units	OrigDataRate	OrigDataStartFrame	OrigNumFrames	
100.00	100.00	4	43	mm	100.00	730	377	
Frame#	Time	LFHD			RFHD			LBHD			RBHD			C7			T10			CLAV			STRN			RBAK			LSHO			LUPA			LELB			LFRM			LWRA			LWRB			LFIN			RSHO			RUPA			RELB			RFRM			RWRA			RWRB			RFIN			LASI			RASI			LPSI			RPSI			LTHI			LKNE			LTIB			LANK			LHEE			LTOE			RTHI			RKNE			RTIB			RANK			RHEE			RTOE			*39			*40			*41			*42			
		X1	Y1	Z1	X2	Y2	Z2	X3	Y3	Z3	X4	Y4	Z4	X5	Y5	Z5	X6	Y6	Z6	X7	Y7	Z7	X8	Y8	Z8	X9	Y9	Z9	X10	Y10	Z10	X11	Y11	Z11	X12	Y12	Z12	X13	Y13	Z13	X14	Y14	Z14	X15	Y15	Z15	X16	Y16	Z16	X17	Y17	Z17	X18	Y18	Z18	X19	Y19	Z19	X20	Y20	Z20	X21	Y21	Z21	X22	Y22	Z22	X23	Y23	Z23	X24	Y24	Z24	X25	Y25	Z25	X26	Y26	Z26	X27	Y27	Z27	X28	Y28	Z28	X29	Y29	Z29	X30	Y30	Z30	X31	Y31	Z31	X32	Y32	Z32	X33	Y33	Z33	X34	Y34	Z34	X35	Y35	Z35	X36	Y36	Z36	X37	Y37	Z37	X38	Y38	Z38	X39	Y39	Z39	X40	Y40	Z40	X41	Y41	Z41	X42	Y42	Z42	X43	Y43	Z43	

1	0.000	-1055.49719	-1202.64209	1673.64978	-940.45447	-1194.86328	1681.57703	-1052.90112	-1305.06519	1600.89673	-932.18591	-1300.22424	1606.71082	-1008.73712	-1309.64783	1428.67200	-987.91772	-1350.45288	1137.08325	-1005.37604	-1168.55042	1359.27515	-1007.23206	-1128.10974	1200.35425	-925.07196	-1368.30566	1239.24170	-1165.51929	-1224.57410	1384.09448	-1246.80627	-1245.23914	1198.44495	-1249.97961	-1252.90918	1046.96838	-1267.45300	-1197.06567	944.18536	-1236.32349	-1105.04468	843.32428	-1268.15649	-1154.41370	829.51514	-1268.69214	-1095.09631	769.07367	-853.61719	-1228.00745	1388.10156	-745.96515	-1287.84094	1192.30652	-743.67493	-1291.43884	1066.67236	-718.87964	-1267.39392	947.13348	-751.53650	-1199.79871	825.84076	-706.54810	-1238.00574	828.71399	-713.89258	-1204.93115	749.65631	-1095.34644	-1181.39526	925.74292	-877.08990	-1168.88086	932.58740	-1031.82556	-1365.30371	939.71466	-887.53748	-1355.28699	946.08051	-1175.90637	-1202.70728	598.16058	-1173.26819	-1212.56238	464.32260	-1177.20972	-1347.63184	334.69879	-1129.72473	-1480.25623	158.45221	-1066.62024	-1522.17188	146.19849	-1168.66858	-1385.74768	54.10457	-826.99469	-1208.98059	597.99030	-859.34015	-1191.78967	441.03229	-857.36023	-1238.06042	270.31479	-916.33081	-1254.30786	67.45500	-966.17432	-1303.59509	29.83919	-922.01483	-1112.07874	29.76632	-963.85535	-1213.99109	1711.77136	-3101.88330	1973.08643	1023.49585	-3140.55054	2012.56641	1021.99060			 
2	0.010	-1054.22595	-1198.29797	1673.80273	-939.38831	-1190.22937	1682.03455	-1051.31934	-1300.93188	1601.50562	-930.57703	-1295.22229	1607.69629	-1007.29010	-1305.93103	1429.32019	-987.09900	-1346.75269	1137.48083	-1004.43164	-1166.01990	1359.28687	-1005.82355	-1124.31250	1200.81982	-923.94019	-1364.68115	1239.66125	-1164.16211	-1220.60852	1384.62732	-1245.24695	-1241.76514	1198.94019	-1248.08057	-1249.97144	1047.43152	-1265.87109	-1195.57312	944.09631	-1235.00781	-1104.86389	841.86035	-1266.84412	-1154.50354	828.91223	-1267.30774	-1096.02136	767.34460	-852.12390	-1224.47729	1388.39587	-744.62537	-1283.54089	1192.32324	-742.08911	-1286.56238	1066.63672	-717.42792	-1261.54968	947.29889	-750.28113	-1192.95569	826.52026	-705.17157	-1230.74597	828.96490	-712.48944	-1197.39539	750.45673	-1094.06763	-1177.16431	926.71503	-875.74286	-1166.30933	932.72772	-1031.86255	-1361.35095	939.99298	-887.54376	-1352.24243	945.90472	-1174.35352	-1194.50598	599.14838	-1171.53845	-1201.97571	465.14893	-1176.87378	-1336.21899	334.55542	-1129.68494	-1468.47095	157.68031	-1067.43335	-1511.50464	145.60315	-1167.66138	-1372.75476	54.98746	-826.68402	-1207.14014	597.89996	-859.22571	-1190.48352	441.07260	-857.09326	-1237.00818	270.32898	-916.29706	-1254.69507	67.74516	-966.23877	-1303.49548	29.85628	-921.92584	-1112.19287	29.71045	-962.69049	-1209.35828	1712.30176	-3101.99023	1973.07959	1023.53790	-3140.76001	2012.52954	1022.05157			 
3	0.020	-1053.28113	-1194.13806	1674.24561	-938.30371	-1185.57568	1682.46301	-1049.83716	-1296.85535	1602.02539	-929.22223	-1291.37842	1608.13208	-1005.94427	-1302.23633	1429.73315	-986.36243	-1343.07666	1137.83533	-1002.62189	-1160.99487	1359.97253	-1004.49451	-1120.55762	1201.22925	-922.90204	-1361.10352	1239.98364	-1162.85571	-1216.79822	1385.18567	-1243.95044	-1238.23022	1199.35754	-1246.28296	-1247.13745	1048.01172	-1264.33508	-1194.19299	944.07190	-1233.85095	-1104.89343	840.51050	-1265.59155	-1154.71924	828.28021	-1266.34827	-1097.09692	765.98340	-850.86450	-1220.85913	1388.56042	-743.39954	-1279.27917	1192.34692	-740.62335	-1281.75183	1066.63538	-716.11523	-1255.73511	947.51477	-749.07568	-1186.18262	827.31940	-703.92871	-1223.77100	829.39337	-711.24194	-1189.79956	751.23901	-1092.96814	-1172.90955	927.82318	-874.30676	-1162.68091	933.05322	-1031.90735	-1357.36902	940.25049	-887.59705	-1349.17859	945.65393	-1172.74292	-1186.55798	600.04742	-1169.96838	-1191.81458	465.94305	-1176.42981	-1324.85278	334.30328	-1129.96948	-1456.70618	157.32071	-1067.95813	-1500.36255	144.59775	-1166.78784	-1359.19299	55.59498	-826.48376	-1205.36597	597.64203	-858.93677	-1188.89172	440.87936	-856.95795	-1236.78296	270.41354	-916.38074	-1254.25342	67.52598	-966.32367	-1303.45496	29.94879	-921.80951	-1112.48145	29.67193	-961.75244	-1205.05969	1712.37976	-3102.00537	1973.04602	1023.42480	-3140.74194	2012.45947	1021.98578			 
4	0.030	-1052.30078	-1189.81641	1674.46118	-937.21759	-1181.11365	1682.87402	-1048.48462	-1292.87573	1602.53088	-927.74115	-1286.50659	1609.10718	-1004.66052	-1298.42615	1429.90833	-985.64923	-1339.44922	1138.16724	-1001.39832	-1157.28394	1360.27856	-1003.17859	-1116.82251	1201.61230	-921.92908	-1357.49622	1240.23499	-1161.60364	-1212.95398	1385.69177	-1242.48877	-1234.74255	1199.76831	-1244.59070	-1244.45361	1048.57300	-1262.88562	-1192.95752	944.06860	-1232.78760	-1104.96692	839.11029	-1264.46460	-1155.02698	827.69312	-1265.14441	-1098.26172	764.46094	-849.56598	-1217.38477	1388.83728	-742.32776	-1275.12720	1192.29163	-739.14746	-1276.97766	1066.72986	-714.82056	-1249.88000	947.65918	-747.93262	-1179.32617	828.18555	-702.81354	-1216.90442	829.81854	-709.98773	-1182.29333	752.03943	-1091.87708	-1168.80420	928.82959	-873.26801	-1160.29016	933.17651	-1032.02356	-1353.44910	940.46472	-887.69019	-1346.06653	945.44281	-1171.24792	-1178.63745	600.93048	-1168.41492	-1181.89600	466.84387	-1175.78125	-1313.60950	334.04178	-1130.02197	-1444.50146	156.10602	-1068.45313	-1488.39014	142.78445	-1166.09497	-1345.19958	55.87537	-826.25739	-1203.63574	597.69714	-858.69818	-1187.97473	440.75848	-856.81995	-1236.31628	270.38895	-916.33105	-1254.60364	67.72507	-966.48175	-1302.98059	29.48483	-921.77692	-1112.08301	29.37661	-960.74054	-1200.46826	1712.86804	-3101.86646	1973.06543	1023.31201	-3140.65479	2012.49854	1021.98926			 
